<svg xmlns="http://www.w3.org/2000/svg" viewBox="0 0 1000 220" width="1000" height="220" role="img" aria-label="چراغ این یادبود را روشن نگه دارید">
  <defs>
    <linearGradient id="sbg" x1="0" y1="0" x2="1" y2="1">
      <stop offset="0%" stop-color="#2a0a14"/>
      <stop offset="50%" stop-color="#190712"/>
      <stop offset="100%" stop-color="#0a0e1a"/>
    </linearGradient>
    <linearGradient id="shine" x1="0" y1="0" x2="1" y2="0">
      <stop offset="0%" stop-color="#ffd166"/>
      <stop offset="50%" stop-color="#ff8fa3"/>
      <stop offset="100%" stop-color="#ffd166"/>
      <animate attributeName="x1" values="-1;1;-1" dur="6s" repeatCount="indefinite"/>
      <animate attributeName="x2" values="0;2;0" dur="6s" repeatCount="indefinite"/>
    </linearGradient>
    <radialGradient id="heartGlow" cx="50%" cy="50%" r="50%">
      <stop offset="0%" stop-color="#ff6b81" stop-opacity="0.6"/>
      <stop offset="100%" stop-color="#ff6b81" stop-opacity="0"/>
    </radialGradient>
    <filter id="hb" x="-60%" y="-60%" width="220%" height="220%"><feGaussianBlur stdDeviation="6"/></filter>
  </defs>

  <!-- کارت -->
  <rect x="4" y="4" width="992" height="212" rx="24" fill="url(#sbg)" stroke="url(#shine)" stroke-width="2.5"/>
  <rect x="4" y="4" width="992" height="212" rx="24" fill="none" stroke="#ffd166" stroke-width="1" opacity="0">
    <animate attributeName="opacity" values="0;0.45;0" dur="4s" repeatCount="indefinite"/>
  </rect>

  <!-- ذرات نور -->
  <g fill="#ffd27a">
    <circle cx="80" cy="40" r="1.4" opacity="0.5"><animate attributeName="opacity" values="0.1;0.8;0.1" dur="3.5s" repeatCount="indefinite"/></circle>
    <circle cx="930" cy="60" r="1.2" opacity="0.5"><animate attributeName="opacity" values="0.7;0.1;0.7" dur="4.2s" repeatCount="indefinite"/></circle>
    <circle cx="900" cy="170" r="1.3" opacity="0.4"><animate attributeName="opacity" values="0.1;0.7;0.1" dur="5s" repeatCount="indefinite"/></circle>
  </g>

  <!-- قلب تپنده (سمت چپ) -->
  <g transform="translate(115,110)">
    <circle cx="0" cy="6" r="55" fill="url(#heartGlow)">
      <animate attributeName="opacity" values="0.5;1;0.5" dur="1.3s" repeatCount="indefinite"/>
    </circle>
    <g filter="url(#hb)">
      <path d="M0,30 C-30,-2 -58,16 -38,42 C-26,57 0,72 0,72 C0,72 26,57 38,42 C58,16 30,-2 0,30 Z" fill="url(#shine)" transform="translate(0,-12)">
        <animateTransform attributeName="transform" type="scale" values="1;1.14;1;1.06;1" dur="1.3s" repeatCount="indefinite" additive="sum"/>
      </path>
    </g>
    <!-- درخشش روی قلب -->
    <ellipse cx="-14" cy="14" rx="8" ry="12" fill="#fff" opacity="0.4" transform="rotate(-30 -14 14)"/>
  </g>

  <!-- متن -->
  <path transform="translate(318.00,92.00) scale(0.01758,-0.01758)" d="M657 419Q657 445 645.5 485.5Q634 526 621 554L428 985L650 1092L894 526Q944 411 980.5 340.0Q1017 269 1088 269H1130V0H1088Q974 0 908.0 43.0Q842 86 789 156Q714 80 609.0 40.5Q504 1 352 1Q268 1 207.5 7.0Q147 13 85 28V296Q216 266 337 266Q420 266 493.0 280.5Q566 295 611.5 328.5Q657 362 657 419Z" fill="url(#shine)"/><path transform="translate(337.51,92.00) scale(0.01758,-0.01758)" d="M194 0H-22V269H194Q275 269 304.5 318.0Q334 367 334 443Q334 511 319.0 590.5Q304 670 287 746L532 809Q551 718 562.0 628.5Q573 539 573 458Q573 327 538.0 223.5Q503 120 420.0 60.0Q337 0 194 0ZM341 -134 507 -298 341 -464 177 -298ZM5 -134 171 -298 5 -464 -159 -298Z" fill="url(#shine)"/><path transform="translate(349.08,92.00) scale(0.01758,-0.01758)" d="M48 -544 -46 -298Q176 -250 296.5 -147.0Q417 -44 417 155Q417 245 390.5 354.5Q364 464 331 562L580 644Q618 536 638.5 415.5Q659 295 659 182Q659 -120 495.5 -304.0Q332 -488 48 -544Z" fill="url(#shine)"/><path transform="translate(362.12,92.00) scale(0.01758,-0.01758)" d="M390 1397V1H140V1397Z" fill="url(#shine)"/><path transform="translate(371.44,92.00) scale(0.01758,-0.01758)" d="M346 265Q438 265 517.5 279.0Q597 293 646.5 327.5Q696 362 696 424Q696 487 639.0 557.5Q582 628 484.0 698.0Q386 768 263 828L378 1068Q526 995 652.5 902.5Q779 810 857.0 694.0Q935 578 935 433Q935 203 781.0 102.5Q627 2 361 2Q284 2 216.5 8.0Q149 14 85 27V295Q150 282 221.5 273.5Q293 265 346 265Z" fill="url(#shine)"/><path transform="translate(398.46,92.00) scale(0.01758,-0.01758)" d="M1075 0Q933 0 844.5 56.5Q756 113 719 235Q604 139 463 139Q301 139 193.0 227.0Q85 315 85 484Q85 608 156.5 699.0Q228 790 345.5 854.0Q463 918 602 960L595 1008L821 1054L915 417Q925 352 964.5 310.5Q1004 269 1079 269H1109V0ZM668 531Q668 545 665.5 561.5Q663 578 660 597L641 713Q559 685 488.5 651.0Q418 617 374.5 577.5Q331 538 331 493Q331 447 366.5 420.0Q402 393 460 393Q509 393 556.5 408.5Q604 424 636.0 454.5Q668 485 668 531Z" fill="url(#shine)"/><path transform="translate(417.60,92.00) scale(0.01758,-0.01758)" d="M62 1201V1344L865 1671V1527ZM319 933Q449 853 538.5 787.0Q628 721 688.0 648.5Q748 576 789 476Q820 401 849.0 355.5Q878 310 921.5 289.5Q965 269 1038 269H1066V0H1038Q920 0 838.5 37.0Q757 74 699 159Q650 101 589.5 66.0Q529 31 441.5 15.5Q354 0 224 0H-20V269H223Q390 269 470.5 294.0Q551 319 551 395Q551 434 502.5 481.5Q454 529 380.5 579.5Q307 630 229.0 680.0Q151 730 91 774Q51 803 30.5 851.0Q10 899 10 948Q10 1003 35.5 1047.5Q61 1092 114 1113L876 1424V1159Z" fill="url(#shine)"/><path transform="translate(435.99,92.00) scale(0.01758,-0.01758)" d="M140 0H-20V269H140Q221 269 250.5 318.0Q280 367 280 443Q280 511 265.0 590.5Q250 670 233 746L478 809Q497 718 508.0 628.5Q519 539 519 458Q519 327 484.0 223.5Q449 120 366.0 60.0Q283 0 140 0ZM258 1280 431 1107 258 934 85 1107Z" fill="url(#shine)"/><path transform="translate(455.67,92.00) scale(0.01758,-0.01758)" d="M697 849 870 676 697 503 524 676ZM709 -249Q857 -249 942.0 -201.5Q1027 -154 1062.5 -72.5Q1098 9 1098 109Q1098 219 1064.0 333.5Q1030 448 990 547L1238 641L1318 399Q1335 344 1372.0 306.5Q1409 269 1478 269H1518V0H1482Q1434 0 1401.0 8.0Q1368 16 1339 38Q1313 -214 1155.0 -364.0Q997 -514 709 -514Q493 -514 355.5 -432.5Q218 -351 152.5 -211.0Q87 -71 87 103Q87 219 113.0 343.5Q139 468 185 591L412 503Q377 400 353.0 300.0Q329 200 329 111Q329 13 363.5 -69.0Q398 -151 481.0 -200.0Q564 -249 709 -249Z" fill="url(#shine)"/><path transform="translate(482.01,92.00) scale(0.01758,-0.01758)" d="M891 1406 1047 1250 891 1094 735 1250ZM1065 1151 1221 995 1065 839 910 995ZM717 1151 873 995 717 839 561 995ZM677 0Q573 0 505.5 35.5Q438 71 396 131Q342 70 267.0 35.0Q192 0 72 0H-20V269H74Q187 269 236.0 299.5Q285 330 285 438Q285 461 281.5 523.5Q278 586 273 643L507 672L528 413Q537 269 679 269Q767 269 796.5 308.0Q826 347 826 438Q826 460 822.5 523.0Q819 586 814 643L1048 672L1069 413Q1073 348 1102.0 308.5Q1131 269 1199 269Q1263 269 1287.0 319.0Q1311 369 1311 438Q1311 494 1301.5 552.5Q1292 611 1280.0 660.0Q1268 709 1262 733L1503 799Q1523 722 1536.0 635.5Q1549 549 1549 463Q1549 342 1517.0 236.5Q1485 131 1408.5 65.5Q1332 0 1200 0Q1109 0 1048.0 37.5Q987 75 946 133Q894 74 828.5 37.0Q763 0 677 0Z" fill="url(#shine)"/><path transform="translate(510.75,92.00) scale(0.01758,-0.01758)" d="M866 212Q866 -14 782.5 -167.0Q699 -320 543.5 -411.0Q388 -502 173 -543L82 -297Q291 -256 429.0 -178.5Q567 -101 601 13Q538 -2 485 -2Q298 -2 191.5 80.5Q85 163 85 348Q85 427 109.0 509.0Q133 591 180.0 660.0Q227 729 296.5 771.0Q366 813 457 813Q562 813 639.0 762.0Q716 711 766.5 625.0Q817 539 841.5 432.0Q866 325 866 212ZM483 265Q525 265 562.5 270.5Q600 276 627 283Q621 345 602.0 407.0Q583 469 547.5 510.0Q512 551 455 551Q403 551 374.0 517.0Q345 483 333.5 438.0Q322 393 322 358Q322 300 366.5 282.5Q411 265 483 265Z" fill="url(#shine)"/><path transform="translate(527.46,92.00) scale(0.01758,-0.01758)" d="M48 -544 -46 -298Q176 -250 296.5 -147.0Q417 -44 417 155Q417 245 390.5 354.5Q364 464 331 562L580 644Q618 536 638.5 415.5Q659 295 659 182Q659 -120 495.5 -304.0Q332 -488 48 -544Z" fill="url(#shine)"/><path transform="translate(549.58,92.00) scale(0.01758,-0.01758)" d="M390 1397V1H140V1397Z" fill="url(#shine)"/><path transform="translate(558.89,92.00) scale(0.01758,-0.01758)" d="M48 -544 -46 -298Q176 -250 296.5 -147.0Q417 -44 417 155Q417 245 390.5 354.5Q364 464 331 562L580 644Q618 536 638.5 415.5Q659 295 659 182Q659 -120 495.5 -304.0Q332 -488 48 -544Z" fill="url(#shine)"/><path transform="translate(581.01,92.00) scale(0.01758,-0.01758)" d="M346 265Q438 265 517.5 279.0Q597 293 646.5 327.5Q696 362 696 424Q696 487 639.0 557.5Q582 628 484.0 698.0Q386 768 263 828L378 1068Q526 995 652.5 902.5Q779 810 857.0 694.0Q935 578 935 433Q935 203 781.0 102.5Q627 2 361 2Q284 2 216.5 8.0Q149 14 85 27V295Q150 282 221.5 273.5Q293 265 346 265Z" fill="url(#shine)"/><path transform="translate(598.95,92.00) scale(0.01758,-0.01758)" d="M457 809Q579 809 666.5 736.5Q754 664 803.5 541.5Q853 419 861 269H945V0H843Q790 -217 629.0 -351.5Q468 -486 173 -543L82 -297Q278 -259 419.5 -184.0Q561 -109 599 0H493Q294 0 189.5 83.0Q85 166 85 348Q85 422 108.0 502.5Q131 583 177.0 652.5Q223 722 293.0 765.5Q363 809 457 809ZM490 269H627Q621 339 602.0 402.0Q583 465 547.5 504.5Q512 544 455 544Q405 544 375.5 512.5Q346 481 334.0 437.5Q322 394 322 358Q322 302 367.0 285.5Q412 269 490 269Z" fill="url(#shine)"/><path transform="translate(615.21,92.00) scale(0.01758,-0.01758)" d="M160 0H-21V269H160Q241 269 270.5 318.0Q300 367 300 443Q300 511 285.0 590.5Q270 670 253 746L498 809Q517 718 528.0 628.5Q539 539 539 458Q539 327 504.0 223.5Q469 120 386.0 60.0Q303 0 160 0ZM185 -125 358 -298 185 -471 12 -298Z" fill="url(#shine)"/><path transform="translate(626.18,92.00) scale(0.01758,-0.01758)" d="M346 265Q438 265 517.5 279.0Q597 293 646.5 327.5Q696 362 696 424Q696 487 639.0 557.5Q582 628 484.0 698.0Q386 768 263 828L378 1068Q526 995 652.5 902.5Q779 810 857.0 694.0Q935 578 935 433Q935 203 781.0 102.5Q627 2 361 2Q284 2 216.5 8.0Q149 14 85 27V295Q150 282 221.5 273.5Q293 265 346 265Z" fill="url(#shine)"/><path transform="translate(644.13,92.00) scale(0.01758,-0.01758)" d="M139 1397H390V475Q390 362 424.5 315.5Q459 269 558 269H583V0H558Q341 0 240.0 113.5Q139 227 139 456Z" fill="url(#shine)"/><path transform="translate(654.03,92.00) scale(0.01758,-0.01758)" d="M194 0H-22V269H194Q275 269 304.5 318.0Q334 367 334 443Q334 511 319.0 590.5Q304 670 287 746L532 809Q551 718 562.0 628.5Q573 539 573 458Q573 327 538.0 223.5Q503 120 420.0 60.0Q337 0 194 0ZM341 -134 507 -298 341 -464 177 -298ZM5 -134 171 -298 5 -464 -159 -298Z" fill="url(#shine)"/><path transform="translate(674.66,92.00) scale(0.01758,-0.01758)" d="M697 849 870 676 697 503 524 676ZM709 -249Q857 -249 942.0 -201.5Q1027 -154 1062.5 -72.5Q1098 9 1098 109Q1098 219 1064.0 333.5Q1030 448 990 547L1238 641L1318 399Q1335 344 1372.0 306.5Q1409 269 1478 269H1518V0H1482Q1434 0 1401.0 8.0Q1368 16 1339 38Q1313 -214 1155.0 -364.0Q997 -514 709 -514Q493 -514 355.5 -432.5Q218 -351 152.5 -211.0Q87 -71 87 103Q87 219 113.0 343.5Q139 468 185 591L412 503Q377 400 353.0 300.0Q329 200 329 111Q329 13 363.5 -69.0Q398 -151 481.0 -200.0Q564 -249 709 -249Z" fill="url(#shine)"/><path transform="translate(700.99,92.00) scale(0.01758,-0.01758)" d="M194 0H-22V269H194Q275 269 304.5 318.0Q334 367 334 443Q334 511 319.0 590.5Q304 670 287 746L532 809Q551 718 562.0 628.5Q573 539 573 458Q573 327 538.0 223.5Q503 120 420.0 60.0Q337 0 194 0ZM341 -134 507 -298 341 -464 177 -298ZM5 -134 171 -298 5 -464 -159 -298Z" fill="url(#shine)"/><path transform="translate(712.56,92.00) scale(0.01758,-0.01758)" d="M390 1397V1H140V1397Z" fill="url(#shine)"/><path transform="translate(730.95,92.00) scale(0.01758,-0.01758)" d="M713 1574 886 1401 713 1228 540 1401ZM1122 500 1107 246Q1066 248 1037.0 248.0Q1008 248 979 248Q784 248 636.5 208.5Q489 169 406.0 86.5Q323 4 323 -126Q323 -231 380.0 -298.0Q437 -365 529.0 -397.5Q621 -430 726 -430Q845 -430 951.5 -406.0Q1058 -382 1158 -342L1229 -591Q1116 -637 988.5 -664.0Q861 -691 737 -691Q608 -691 490.5 -659.5Q373 -628 282.0 -561.5Q191 -495 138.0 -389.0Q85 -283 85 -134Q85 213 396 399Q353 452 326.5 521.0Q300 590 300 670Q300 785 361.0 882.5Q422 980 521.0 1039.0Q620 1098 734 1098Q830 1098 927.0 1060.0Q1024 1022 1120 954L1023 735Q954 776 890.0 802.5Q826 829 751 829Q672 829 608.5 783.0Q545 737 545 656Q545 595 576.5 552.0Q608 509 638 484Q731 495 806.0 501.5Q881 508 957 508Q998 508 1035.5 506.5Q1073 505 1122 500Z" fill="url(#shine)"/><path transform="translate(753.94,92.00) scale(0.01758,-0.01758)" d="M390 1397V1H140V1397Z" fill="url(#shine)"/><path transform="translate(763.26,92.00) scale(0.01758,-0.01758)" d="M804 0Q755 0 714.5 11.0Q674 22 647 39Q611 -184 461.0 -338.5Q311 -493 46 -544L-46 -298Q176 -250 296.5 -147.0Q417 -44 417 155Q417 245 390.5 354.5Q364 464 331 562L579 644L637 421Q654 353 690.0 311.0Q726 269 793 269H832V0Z" fill="url(#shine)"/><path transform="translate(777.53,92.00) scale(0.01758,-0.01758)" d="M840 -104 996 -260 840 -416 685 -260ZM492 -104 648 -260 492 -416 336 -260ZM666 -360 822 -515 666 -671 510 -515ZM-20 269H150Q285 269 398.0 295.5Q511 322 631.0 373.5Q751 425 904 499Q753 555 647.5 597.5Q542 640 506 640Q451 640 406.5 606.0Q362 572 332 533L284 473L74 575L113 639Q182 752 279.5 826.5Q377 901 507 901Q561 901 634.5 875.0Q708 849 793.0 810.5Q878 772 968.5 733.5Q1059 695 1148.5 668.5Q1238 642 1319 640V394Q1250 385 1186.5 362.0Q1123 339 1051.0 303.0Q979 267 884 216Q756 148 643.0 99.5Q530 51 411.5 25.5Q293 0 147 0H-20Z" fill="url(#shine)"/>
  <path transform="translate(333.85,130.00) scale(0.00928,-0.00928)" d="M1075 0Q933 0 844.5 56.5Q756 113 719 235Q604 139 463 139Q301 139 193.0 227.0Q85 315 85 484Q85 608 156.5 699.0Q228 790 345.5 854.0Q463 918 602 960L595 1008L821 1054L915 417Q925 352 964.5 310.5Q1004 269 1079 269H1109V0ZM668 531Q668 545 665.5 561.5Q663 578 660 597L641 713Q559 685 488.5 651.0Q418 617 374.5 577.5Q331 538 331 493Q331 447 366.5 420.0Q402 393 460 393Q509 393 556.5 408.5Q604 424 636.0 454.5Q668 485 668 531Z" fill="#ecd9ec"/><path transform="translate(343.95,130.00) scale(0.00928,-0.00928)" d="M140 0H-20V269H140Q221 269 250.5 318.0Q280 367 280 443Q280 511 265.0 590.5Q250 670 233 746L478 809Q497 718 508.0 628.5Q519 539 519 458Q519 327 484.0 223.5Q449 120 366.0 60.0Q283 0 140 0ZM258 1280 431 1107 258 934 85 1107Z" fill="#ecd9ec"/><path transform="translate(349.56,130.00) scale(0.00928,-0.00928)" d="M139 1397H390V475Q390 362 424.5 315.5Q459 269 558 269H583V0H558Q341 0 240.0 113.5Q139 227 139 456Z" fill="#ecd9ec"/><path transform="translate(354.78,130.00) scale(0.00928,-0.00928)" d="M-21 269H96Q209 269 253.0 310.0Q297 351 297 455Q297 511 294.5 564.0Q292 617 287 669L521 697L541 421Q546 342 585.5 305.5Q625 269 709 269H730V0H707Q605 0 534.5 37.0Q464 74 419 134Q360 70 275.5 35.0Q191 0 96 0H-21ZM185 -125 358 -298 185 -471 12 -298Z" fill="#ecd9ec"/><path transform="translate(361.37,130.00) scale(0.00928,-0.00928)" d="M227 471V1397H478V470Q478 373 510.5 321.0Q543 269 639 269H671V0H641Q534 0 467.5 34.0Q401 68 353 133Q301 70 233.5 35.0Q166 0 46 0H-20V269H40Q145 269 186.0 319.5Q227 370 227 471Z" fill="#ecd9ec"/><path transform="translate(367.41,130.00) scale(0.00928,-0.00928)" d="M128 269Q142 293 157.5 316.0Q173 339 189 362V1397H440V681Q535 777 632.5 831.5Q730 886 844 887Q970 887 1066.0 834.5Q1162 782 1216.0 690.0Q1270 598 1270 479Q1270 300 1169.5 195.0Q1069 90 895.0 45.0Q721 0 498 0H-20V269ZM852 623Q774 623 695.0 574.5Q616 526 541.5 445.5Q467 365 402 269H507Q653 269 770.0 284.5Q887 300 955.5 341.5Q1024 383 1024 461Q1024 534 975.5 578.5Q927 623 852 623Z" fill="#ecd9ec"/><path transform="translate(379.98,130.00) scale(0.00928,-0.00928)" d="M866 212Q866 -14 782.5 -167.0Q699 -320 543.5 -411.0Q388 -502 173 -543L82 -297Q291 -256 429.0 -178.5Q567 -101 601 13Q538 -2 485 -2Q298 -2 191.5 80.5Q85 163 85 348Q85 427 109.0 509.0Q133 591 180.0 660.0Q227 729 296.5 771.0Q366 813 457 813Q562 813 639.0 762.0Q716 711 766.5 625.0Q817 539 841.5 432.0Q866 325 866 212ZM483 265Q525 265 562.5 270.5Q600 276 627 283Q621 345 602.0 407.0Q583 469 547.5 510.0Q512 551 455 551Q403 551 374.0 517.0Q345 483 333.5 438.0Q322 393 322 358Q322 300 366.5 282.5Q411 265 483 265Z" fill="#ecd9ec"/><path transform="translate(388.80,130.00) scale(0.00928,-0.00928)" d="M390 1397V1H140V1397Z" fill="#ecd9ec"/><path transform="translate(393.72,130.00) scale(0.00928,-0.00928)" d="M346 265Q438 265 517.5 279.0Q597 293 646.5 327.5Q696 362 696 424Q696 487 639.0 557.5Q582 628 484.0 698.0Q386 768 263 828L378 1068Q526 995 652.5 902.5Q779 810 857.0 694.0Q935 578 935 433Q935 203 781.0 102.5Q627 2 361 2Q284 2 216.5 8.0Q149 14 85 27V295Q150 282 221.5 273.5Q293 265 346 265Z" fill="#ecd9ec"/><path transform="translate(407.98,130.00) scale(0.00928,-0.00928)" d="M709 -514Q489 -514 352.0 -430.5Q215 -347 151.0 -206.5Q87 -66 87 105Q87 198 105.5 302.5Q124 407 165 519L392 436Q329 253 329 107Q329 8 364.0 -72.5Q399 -153 482.5 -201.0Q566 -249 709 -249Q866 -249 964.5 -215.0Q1063 -181 1109.0 -138.0Q1155 -95 1155 -68Q1155 -30 1119.5 -15.0Q1084 0 1007 0H852Q815 0 804.0 20.0Q793 40 783 74L744 218Q738 240 741.0 254.0Q744 268 776 268H1370V0H1368Q1376 -22 1378.0 -36.0Q1380 -50 1380 -67Q1380 -183 1302.0 -285.0Q1224 -387 1074.5 -450.5Q925 -514 709 -514Z" fill="#ecd9ec"/><path transform="translate(420.49,130.00) scale(0.00928,-0.00928)" d="M510 86Q420 54 304.5 27.0Q189 0 79 0H-20V269H66Q105 269 138.5 270.0Q172 271 209 274Q171 317 149.5 383.5Q128 450 128 510Q128 599 171.5 679.5Q215 760 298.5 812.0Q382 864 502 867L597 1054Q844 937 1014.0 843.0Q1184 749 1271.5 649.5Q1359 550 1359 415Q1359 217 1239.5 113.5Q1120 10 922 10Q852 10 776.0 22.0Q700 34 630.5 52.0Q561 70 510 86ZM363 512Q363 456 413.0 406.5Q463 357 527 335Q561 345 597.0 368.0Q633 391 658.0 424.5Q683 458 683 496Q683 561 638.5 608.0Q594 655 529 655Q461 655 412.0 613.5Q363 572 363 512ZM790 270Q836 263 881.5 259.0Q927 255 950 255Q1021 255 1073.0 288.5Q1125 322 1125 408Q1125 446 1073.5 500.0Q1022 554 868 641Q890 588 890 531Q890 450 863.0 385.5Q836 321 790 270Z" fill="#ecd9ec"/><path transform="translate(433.89,130.00) scale(0.00928,-0.00928)" d="M390 1397V1H140V1397Z" fill="#ecd9ec"/><path transform="translate(438.81,130.00) scale(0.00928,-0.00928)" d="M804 0Q755 0 714.5 11.0Q674 22 647 39Q611 -184 461.0 -338.5Q311 -493 46 -544L-46 -298Q176 -250 296.5 -147.0Q417 -44 417 155Q417 245 390.5 354.5Q364 464 331 562L579 644L637 421Q654 353 690.0 311.0Q726 269 793 269H832V0Z" fill="#ecd9ec"/><path transform="translate(446.34,130.00) scale(0.00928,-0.00928)" d="M24 0H-20L-19 269H19Q72 269 112.5 307.5Q153 346 189.5 406.0Q226 466 265.0 534.0Q304 602 353.5 662.0Q403 722 469.0 760.5Q535 799 626 799Q738 799 820.0 752.5Q902 706 953.0 626.5Q1004 547 1021 449Q1038 349 1079.0 309.0Q1120 269 1168 269H1194V0H1167Q1103 0 1041.0 28.5Q979 57 942 102Q893 38 831.5 7.5Q770 -23 682 -23Q579 -23 490.0 21.5Q401 66 313 136Q256 78 196.5 39.0Q137 0 24 0ZM634 543Q591 543 556.5 514.5Q522 486 496.0 444.0Q470 402 451 363Q482 333 511.0 311.5Q540 290 566 276Q601 257 630.5 249.0Q660 241 683 241Q740 241 765.5 279.0Q791 317 791 371Q791 442 749.5 492.5Q708 543 634 543Z" fill="#ecd9ec"/><path transform="translate(457.23,130.00) scale(0.00928,-0.00928)" d="M510 86Q420 54 304.5 27.0Q189 0 79 0H-20V269H66Q105 269 138.5 270.0Q172 271 209 274Q171 317 149.5 383.5Q128 450 128 510Q128 599 171.5 679.5Q215 760 298.5 812.0Q382 864 502 867L597 1054Q844 937 1014.0 843.0Q1184 749 1271.5 649.5Q1359 550 1359 415Q1359 217 1239.5 113.5Q1120 10 922 10Q852 10 776.0 22.0Q700 34 630.5 52.0Q561 70 510 86ZM363 512Q363 456 413.0 406.5Q463 357 527 335Q561 345 597.0 368.0Q633 391 658.0 424.5Q683 458 683 496Q683 561 638.5 608.0Q594 655 529 655Q461 655 412.0 613.5Q363 572 363 512ZM790 270Q836 263 881.5 259.0Q927 255 950 255Q1021 255 1073.0 288.5Q1125 322 1125 408Q1125 446 1073.5 500.0Q1022 554 868 641Q890 588 890 531Q890 450 863.0 385.5Q836 321 790 270Z" fill="#ecd9ec"/><path transform="translate(475.41,130.00) scale(0.00928,-0.00928)" d="M139 1397H390V475Q390 362 424.5 315.5Q459 269 558 269H583V0H558Q341 0 240.0 113.5Q139 227 139 456Z" fill="#ecd9ec"/><path transform="translate(480.64,130.00) scale(0.00928,-0.00928)" d="M194 0H-22V269H194Q275 269 304.5 318.0Q334 367 334 443Q334 511 319.0 590.5Q304 670 287 746L532 809Q551 718 562.0 628.5Q573 539 573 458Q573 327 538.0 223.5Q503 120 420.0 60.0Q337 0 194 0ZM341 -134 507 -298 341 -464 177 -298ZM5 -134 171 -298 5 -464 -159 -298Z" fill="#ecd9ec"/><path transform="translate(491.53,130.00) scale(0.00928,-0.00928)" d="M1477 413H123V624H1477Z" fill="#ecd9ec"/><path transform="translate(511.16,130.00) scale(0.00928,-0.00928)" d="M302 773 263 808 419 1008Q510 935 597.5 863.0Q685 791 756.0 715.5Q827 640 869.0 558.0Q911 476 911 384Q911 266 858.0 181.0Q805 96 712.0 50.0Q619 4 498 4Q298 4 191.5 102.5Q85 201 85 350Q85 474 146.5 571.5Q208 669 302 773ZM672 385Q672 420 642.5 461.0Q613 502 570.0 542.0Q527 582 486 613Q426 558 375.0 493.5Q324 429 324 375Q324 326 369.5 297.5Q415 269 497 269Q672 269 672 385Z" fill="#ecd9ec"/><path transform="translate(520.39,130.00) scale(0.00928,-0.00928)" d="M346 265Q438 265 517.5 279.0Q597 293 646.5 327.5Q696 362 696 424Q696 487 639.0 557.5Q582 628 484.0 698.0Q386 768 263 828L378 1068Q526 995 652.5 902.5Q779 810 857.0 694.0Q935 578 935 433Q935 203 781.0 102.5Q627 2 361 2Q284 2 216.5 8.0Q149 14 85 27V295Q150 282 221.5 273.5Q293 265 346 265Z" fill="#ecd9ec"/><path transform="translate(529.86,130.00) scale(0.00928,-0.00928)" d="M390 1397V1H140V1397Z" fill="#ecd9ec"/><path transform="translate(534.78,130.00) scale(0.00928,-0.00928)" d="M346 265Q438 265 517.5 279.0Q597 293 646.5 327.5Q696 362 696 424Q696 487 639.0 557.5Q582 628 484.0 698.0Q386 768 263 828L378 1068Q526 995 652.5 902.5Q779 810 857.0 694.0Q935 578 935 433Q935 203 781.0 102.5Q627 2 361 2Q284 2 216.5 8.0Q149 14 85 27V295Q150 282 221.5 273.5Q293 265 346 265Z" fill="#ecd9ec"/><path transform="translate(549.04,130.00) scale(0.00928,-0.00928)" d="M48 -544 -46 -298Q176 -250 296.5 -147.0Q417 -44 417 155Q417 245 390.5 354.5Q364 464 331 562L580 644Q618 536 638.5 415.5Q659 295 659 182Q659 -120 495.5 -304.0Q332 -488 48 -544Z" fill="#ecd9ec"/><path transform="translate(555.92,130.00) scale(0.00928,-0.00928)" d="M346 265Q438 265 517.5 279.0Q597 293 646.5 327.5Q696 362 696 424Q696 487 639.0 557.5Q582 628 484.0 698.0Q386 768 263 828L378 1068Q526 995 652.5 902.5Q779 810 857.0 694.0Q935 578 935 433Q935 203 781.0 102.5Q627 2 361 2Q284 2 216.5 8.0Q149 14 85 27V295Q150 282 221.5 273.5Q293 265 346 265Z" fill="#ecd9ec"/><path transform="translate(570.18,130.00) scale(0.00928,-0.00928)" d="M1106 1074 1272 910 1106 744 942 910ZM770 1074 936 910 770 744 606 910ZM1500 669 1734 697 1754 421Q1759 342 1797.0 305.5Q1835 269 1920 269H1943V0H1920Q1806 0 1730.5 42.5Q1655 85 1606 162Q1516 76 1385.5 38.0Q1255 0 1042 0H875Q641 0 463.0 41.0Q285 82 185.0 188.0Q85 294 85 490Q85 576 104.5 658.0Q124 740 153 810L377 725Q361 679 344.5 619.5Q328 560 328 505Q328 402 400.0 351.5Q472 301 596.0 285.0Q720 269 875 269H1042Q1190 269 1294.5 282.0Q1399 295 1454.5 335.0Q1510 375 1510 456Q1510 506 1507.0 564.0Q1504 622 1500 669Z" fill="#ecd9ec"/><path transform="translate(588.02,130.00) scale(0.00928,-0.00928)" d="M319 933Q449 853 556.5 773.0Q664 693 728.5 600.5Q793 508 793 391Q793 240 724.0 154.5Q655 69 527.5 34.5Q400 0 224 0H-20V269H223Q390 269 470.5 294.0Q551 319 551 395Q551 434 502.5 481.5Q454 529 380.5 579.5Q307 630 229.0 680.0Q151 730 91 774Q51 803 30.5 849.5Q10 896 10 945Q10 998 35.5 1045.0Q61 1092 114 1113L876 1424V1159Z" fill="#ecd9ec"/><path transform="translate(596.64,130.00) scale(0.00928,-0.00928)" d="M48 -544 -46 -298Q176 -250 296.5 -147.0Q417 -44 417 155Q417 245 390.5 354.5Q364 464 331 562L580 644Q618 536 638.5 415.5Q659 295 659 182Q659 -120 495.5 -304.0Q332 -488 48 -544Z" fill="#ecd9ec"/><path transform="translate(603.52,130.00) scale(0.00928,-0.00928)" d="M139 1397H390V475Q390 362 424.5 315.5Q459 269 558 269H583V0H558Q341 0 240.0 113.5Q139 227 139 456Z" fill="#ecd9ec"/><path transform="translate(608.75,130.00) scale(0.00928,-0.00928)" d="M891 1406 1047 1250 891 1094 735 1250ZM1065 1151 1221 995 1065 839 910 995ZM717 1151 873 995 717 839 561 995ZM1200 0Q1109 0 1048.0 37.5Q987 75 946 133Q894 74 828.5 37.0Q763 0 677 0Q573 0 505.5 35.5Q438 71 396 131Q342 70 267.0 35.0Q192 0 72 0H-20V269H74Q187 269 236.0 299.5Q285 330 285 438Q285 461 281.5 523.5Q278 586 273 643L507 672L528 413Q537 269 679 269Q767 269 796.5 308.0Q826 347 826 438Q826 460 822.5 523.0Q819 586 814 643L1048 672L1069 413Q1073 348 1102.0 308.5Q1131 269 1199 269Q1262 269 1287.5 312.5Q1313 356 1313 438Q1313 474 1309.5 536.5Q1306 599 1301 661L1535 690L1556 413Q1561 335 1600.5 302.0Q1640 269 1719 269H1749V0H1721Q1627 0 1556.0 33.5Q1485 67 1447 126Q1407 71 1348.0 35.5Q1289 0 1200 0Z" fill="#ecd9ec"/><path transform="translate(624.79,130.00) scale(0.00928,-0.00928)" d="M682 -23Q579 -23 490.0 21.5Q401 66 313 136Q256 78 196.5 39.0Q137 0 24 0H-20V269H19Q72 269 112.5 307.5Q153 346 189.5 406.0Q226 466 265.0 534.0Q304 602 353.5 662.0Q403 722 469.0 760.5Q535 799 626 799Q749 799 839.5 740.5Q930 682 979.0 586.0Q1028 490 1028 376Q1028 201 941.0 89.0Q854 -23 682 -23ZM634 543Q591 543 556.5 514.5Q522 486 496.0 444.0Q470 402 451 363Q507 310 559 280Q597 258 628.0 249.5Q659 241 683 241Q740 241 765.5 279.0Q791 317 791 371Q791 442 749.5 492.5Q708 543 634 543Z" fill="#ecd9ec"/><path transform="translate(639.89,130.00) scale(0.00928,-0.00928)" d="M499 576Q438 521 399.0 461.5Q360 402 349 322Q473 303 473 163Q473 87 430.5 43.5Q388 0 309 0Q215 0 169.5 51.5Q124 103 124 193Q124 348 193.0 468.0Q262 588 374 676Z" fill="#ecd9ec"/><path transform="translate(645.56,130.00) scale(0.00928,-0.00928)" d="M709 -514Q489 -514 352.0 -430.5Q215 -347 151.0 -206.5Q87 -66 87 105Q87 198 105.5 302.5Q124 407 165 519L392 436Q329 253 329 107Q329 8 364.0 -72.5Q399 -153 482.5 -201.0Q566 -249 709 -249Q866 -249 964.5 -215.0Q1063 -181 1109.0 -138.0Q1155 -95 1155 -68Q1155 -30 1119.5 -15.0Q1084 0 1007 0H852Q815 0 804.0 20.0Q793 40 783 74L744 218Q738 240 741.0 254.0Q744 268 776 268H1370V0H1368Q1376 -22 1378.0 -36.0Q1380 -50 1380 -67Q1380 -183 1302.0 -285.0Q1224 -387 1074.5 -450.5Q925 -514 709 -514Z" fill="#ecd9ec"/><path transform="translate(658.08,130.00) scale(0.00928,-0.00928)" d="M140 0H-20V269H140Q221 269 250.5 318.0Q280 367 280 443Q280 511 265.0 590.5Q250 670 233 746L478 809Q497 718 508.0 628.5Q519 539 519 458Q519 327 484.0 223.5Q449 120 366.0 60.0Q283 0 140 0ZM258 1280 431 1107 258 934 85 1107Z" fill="#ecd9ec"/><path transform="translate(663.68,130.00) scale(0.00928,-0.00928)" d="M139 1397H390V475Q390 362 424.5 315.5Q459 269 558 269H583V0H558Q341 0 240.0 113.5Q139 227 139 456Z" fill="#ecd9ec"/><path transform="translate(668.90,130.00) scale(0.00928,-0.00928)" d="M677 0Q573 0 505.5 35.5Q438 71 396 131Q342 70 267.0 35.0Q192 0 72 0H-20V269H74Q187 269 236.0 299.5Q285 330 285 438Q285 461 281.5 523.5Q278 586 273 643L507 672L528 413Q537 269 679 269Q767 269 796.5 308.0Q826 347 826 438Q826 460 822.5 523.0Q819 586 814 643L1048 672L1069 413Q1073 348 1102.0 308.5Q1131 269 1199 269Q1263 269 1287.0 319.0Q1311 369 1311 438Q1311 494 1301.5 552.5Q1292 611 1280.0 660.0Q1268 709 1262 733L1503 799Q1523 722 1536.0 635.5Q1549 549 1549 463Q1549 342 1517.0 236.5Q1485 131 1408.5 65.5Q1332 0 1200 0Q1109 0 1048.0 37.5Q987 75 946 133Q894 74 828.5 37.0Q763 0 677 0Z" fill="#ecd9ec"/><path transform="translate(684.07,130.00) scale(0.00928,-0.00928)" d="M48 -544 -46 -298Q176 -250 296.5 -147.0Q417 -44 417 155Q417 245 390.5 354.5Q364 464 331 562L580 644Q618 536 638.5 415.5Q659 295 659 182Q659 -120 495.5 -304.0Q332 -488 48 -544Z" fill="#ecd9ec"/><path transform="translate(690.95,130.00) scale(0.00928,-0.00928)" d="M1165 460Q1172 416 1191.5 372.0Q1211 328 1241.5 298.5Q1272 269 1311 269H1338V0H1311Q1247 0 1186.0 29.0Q1125 58 1087 104Q1045 44 985.5 14.0Q926 -16 834 -16Q779 -16 717.5 3.0Q656 22 597.5 46.5Q539 71 491.0 90.0Q443 109 414 109Q362 109 345.5 13.5Q329 -82 329 -243Q329 -367 335.5 -474.5Q342 -582 346 -637H92Q86 -532 82.0 -434.5Q78 -337 78 -245Q78 -74 95.5 57.0Q113 188 172.0 270.0Q231 352 354 374Q389 489 446.0 585.5Q503 682 584.0 740.0Q665 798 770 798Q927 798 1033.5 706.5Q1140 615 1165 460ZM936 366Q936 435 891.5 487.5Q847 540 774 540Q727 540 691.0 508.5Q655 477 630.5 429.0Q606 381 590 333Q665 299 731.0 273.5Q797 248 838 248Q891 248 913.5 283.5Q936 319 936 366Z" fill="#ecd9ec"/><path transform="translate(703.18,130.00) scale(0.00928,-0.00928)" d="M510 86Q420 54 304.5 27.0Q189 0 79 0H-20V269H66Q105 269 138.5 270.0Q172 271 209 274Q171 317 149.5 383.5Q128 450 128 510Q128 599 171.5 679.5Q215 760 298.5 812.0Q382 864 502 867L597 1054Q844 937 1014.0 843.0Q1184 749 1271.5 649.5Q1359 550 1359 415Q1359 217 1239.5 113.5Q1120 10 922 10Q852 10 776.0 22.0Q700 34 630.5 52.0Q561 70 510 86ZM363 512Q363 456 413.0 406.5Q463 357 527 335Q561 345 597.0 368.0Q633 391 658.0 424.5Q683 458 683 496Q683 561 638.5 608.0Q594 655 529 655Q461 655 412.0 613.5Q363 572 363 512ZM790 270Q836 263 881.5 259.0Q927 255 950 255Q1021 255 1073.0 288.5Q1125 322 1125 408Q1125 446 1073.5 500.0Q1022 554 868 641Q890 588 890 531Q890 450 863.0 385.5Q836 321 790 270Z" fill="#ecd9ec"/><path transform="translate(721.37,130.00) scale(0.00928,-0.00928)" d="M499 576Q438 521 399.0 461.5Q360 402 349 322Q473 303 473 163Q473 87 430.5 43.5Q388 0 309 0Q215 0 169.5 51.5Q124 103 124 193Q124 348 193.0 468.0Q262 588 374 676Z" fill="#ecd9ec"/><path transform="translate(727.03,130.00) scale(0.00928,-0.00928)" d="M302 773 263 808 419 1008Q510 935 597.5 863.0Q685 791 756.0 715.5Q827 640 869.0 558.0Q911 476 911 384Q911 266 858.0 181.0Q805 96 712.0 50.0Q619 4 498 4Q298 4 191.5 102.5Q85 201 85 350Q85 474 146.5 571.5Q208 669 302 773ZM672 385Q672 420 642.5 461.0Q613 502 570.0 542.0Q527 582 486 613Q426 558 375.0 493.5Q324 429 324 375Q324 326 369.5 297.5Q415 269 497 269Q672 269 672 385Z" fill="#ecd9ec"/><path transform="translate(736.26,130.00) scale(0.00928,-0.00928)" d="M48 -544 -46 -298Q176 -250 296.5 -147.0Q417 -44 417 155Q417 245 390.5 354.5Q364 464 331 562L580 644Q618 536 638.5 415.5Q659 295 659 182Q659 -120 495.5 -304.0Q332 -488 48 -544Z" fill="#ecd9ec"/><path transform="translate(743.15,130.00) scale(0.00928,-0.00928)" d="M139 1397H390V475Q390 362 424.5 315.5Q459 269 558 269H583V0H558Q341 0 240.0 113.5Q139 227 139 456Z" fill="#ecd9ec"/><path transform="translate(748.37,130.00) scale(0.00928,-0.00928)" d="M422 1182 588 1018 422 852 258 1018ZM86 1182 252 1018 86 852 -78 1018ZM-20 269H120Q233 269 277.0 310.0Q321 351 321 455Q321 511 318.5 564.0Q316 617 311 669L545 697L565 421Q570 342 609.5 305.5Q649 269 733 269H754V0H731Q629 0 558.5 37.0Q488 74 443 134Q384 70 299.5 35.0Q215 0 120 0H-20Z" fill="#ecd9ec"/><path transform="translate(755.18,130.00) scale(0.00928,-0.00928)" d="M677 0Q573 0 505.5 35.5Q438 71 396 131Q342 70 267.0 35.0Q192 0 72 0H-20V269H74Q187 269 236.0 299.5Q285 330 285 438Q285 461 281.5 523.5Q278 586 273 643L507 672L528 413Q537 269 679 269Q767 269 796.5 308.0Q826 347 826 438Q826 460 822.5 523.0Q819 586 814 643L1048 672L1069 413Q1073 348 1102.0 308.5Q1131 269 1199 269Q1263 269 1287.0 319.0Q1311 369 1311 438Q1311 494 1301.5 552.5Q1292 611 1280.0 660.0Q1268 709 1262 733L1503 799Q1523 722 1536.0 635.5Q1549 549 1549 463Q1549 342 1517.0 236.5Q1485 131 1408.5 65.5Q1332 0 1200 0Q1109 0 1048.0 37.5Q987 75 946 133Q894 74 828.5 37.0Q763 0 677 0Z" fill="#ecd9ec"/><path transform="translate(775.14,130.00) scale(0.00928,-0.00928)" d="M139 1397H390V475Q390 362 424.5 315.5Q459 269 558 269H583V0H558Q341 0 240.0 113.5Q139 227 139 456Z" fill="#ecd9ec"/><path transform="translate(780.36,130.00) scale(0.00928,-0.00928)" d="M160 0H-21V269H160Q241 269 270.5 318.0Q300 367 300 443Q300 511 285.0 590.5Q270 670 253 746L498 809Q517 718 528.0 628.5Q539 539 539 458Q539 327 504.0 223.5Q469 120 386.0 60.0Q303 0 160 0ZM185 -125 358 -298 185 -471 12 -298Z" fill="#ecd9ec"/>
  <text x="560" y="162" text-anchor="middle" font-family="Georgia, serif" font-size="15"
        letter-spacing="1.5" fill="#ffb3c1" opacity="0.85" font-style="italic">Keep the flame of this memorial alive</text>
</svg>