<svg xmlns="http://www.w3.org/2000/svg" viewBox="0 0 1000 70" width="1000" height="70" role="img" aria-label="آنان که برای آزادی جان دادند، جاویدان‌اند">
  <defs>
    <linearGradient id="underline" x1="0" y1="0" x2="1" y2="0">
      <stop offset="0" stop-color="#be1234" stop-opacity="0"/>
      <stop offset="0.5" stop-color="#ff6b81"/>
      <stop offset="1" stop-color="#be1234" stop-opacity="0"/>
    </linearGradient>
  </defs>
  <g opacity="0"><animate attributeName="opacity" dur="9s" repeatCount="indefinite" keyTimes="0;0.000;0.067;0.267;0.333;1" values="0;0;1;1;0;0"/><animateTransform attributeName="transform" type="translate" dur="9s" repeatCount="indefinite" keyTimes="0;0.000;0.067;1" values="0 8;0 8;0 0;0 0"/><path transform="translate(281.57,44.00) scale(0.01318,-0.01318)" d="M657 419Q657 445 645.5 485.5Q634 526 621 554L428 985L650 1092L894 526Q944 411 980.5 340.0Q1017 269 1088 269H1130V0H1088Q974 0 908.0 43.0Q842 86 789 156Q714 80 609.0 40.5Q504 1 352 1Q268 1 207.5 7.0Q147 13 85 28V296Q216 266 337 266Q420 266 493.0 280.5Q566 295 611.5 328.5Q657 362 657 419Z" fill="#ff6b81"/><path transform="translate(296.21,44.00) scale(0.01318,-0.01318)" d="M140 0H-20V269H140Q221 269 250.5 318.0Q280 367 280 443Q280 511 265.0 590.5Q250 670 233 746L478 809Q497 718 508.0 628.5Q519 539 519 458Q519 327 484.0 223.5Q449 120 366.0 60.0Q283 0 140 0ZM258 1280 431 1107 258 934 85 1107Z" fill="#ff6b81"/><path transform="translate(304.17,44.00) scale(0.01318,-0.01318)" d="M390 1397V1H140V1397Z" fill="#ff6b81"/><path transform="translate(311.16,44.00) scale(0.01318,-0.01318)" d="M696 925 869 752 696 579 523 752ZM709 -177Q858 -177 942.5 -129.0Q1027 -81 1062.5 0.0Q1098 81 1098 181Q1098 291 1064.0 406.0Q1030 521 990 619L1238 713Q1293 567 1317.0 441.5Q1341 316 1341 189Q1341 -100 1181.5 -271.0Q1022 -442 709 -442Q493 -442 355.5 -360.5Q218 -279 152.5 -139.0Q87 1 87 175Q87 292 113.0 416.0Q139 540 185 663L412 575Q377 472 353.0 372.0Q329 272 329 184Q329 85 363.5 3.0Q398 -79 481.0 -128.0Q564 -177 709 -177Z" fill="#ff6b81"/><path transform="translate(329.96,44.00) scale(0.01318,-0.01318)" d="M390 1397V1H140V1397Z" fill="#ff6b81"/><path transform="translate(336.95,44.00) scale(0.01318,-0.01318)" d="M657 419Q657 445 645.5 485.5Q634 526 621 554L428 985L650 1092L894 526Q944 411 980.5 340.0Q1017 269 1088 269H1130V0H1088Q974 0 908.0 43.0Q842 86 789 156Q714 80 609.0 40.5Q504 1 352 1Q268 1 207.5 7.0Q147 13 85 28V296Q216 266 337 266Q420 266 493.0 280.5Q566 295 611.5 328.5Q657 362 657 419Z" fill="#ff6b81"/><path transform="translate(351.58,44.00) scale(0.01318,-0.01318)" d="M194 0H-22V269H194Q275 269 304.5 318.0Q334 367 334 443Q334 511 319.0 590.5Q304 670 287 746L532 809Q551 718 562.0 628.5Q573 539 573 458Q573 327 538.0 223.5Q503 120 420.0 60.0Q337 0 194 0ZM341 -134 507 -298 341 -464 177 -298ZM5 -134 171 -298 5 -464 -159 -298Z" fill="#ff6b81"/><path transform="translate(360.25,44.00) scale(0.01318,-0.01318)" d="M866 212Q866 -14 782.5 -167.0Q699 -320 543.5 -411.0Q388 -502 173 -543L82 -297Q291 -256 429.0 -178.5Q567 -101 601 13Q538 -2 485 -2Q298 -2 191.5 80.5Q85 163 85 348Q85 427 109.0 509.0Q133 591 180.0 660.0Q227 729 296.5 771.0Q366 813 457 813Q562 813 639.0 762.0Q716 711 766.5 625.0Q817 539 841.5 432.0Q866 325 866 212ZM483 265Q525 265 562.5 270.5Q600 276 627 283Q621 345 602.0 407.0Q583 469 547.5 510.0Q512 551 455 551Q403 551 374.0 517.0Q345 483 333.5 438.0Q322 393 322 358Q322 300 366.5 282.5Q411 265 483 265Z" fill="#ff6b81"/><path transform="translate(372.79,44.00) scale(0.01318,-0.01318)" d="M139 1397H390V475Q390 362 424.5 315.5Q459 269 558 269H583V0H558Q341 0 240.0 113.5Q139 227 139 456Z" fill="#ff6b81"/><path transform="translate(380.21,44.00) scale(0.01318,-0.01318)" d="M666 -125 839 -298 666 -471 493 -298ZM-20 269H150Q285 269 398.0 295.5Q511 322 631.0 373.5Q751 425 904 499Q753 555 647.5 597.5Q542 640 506 640Q451 640 406.5 606.0Q362 572 332 533L284 473L74 575L113 639Q182 752 279.5 826.5Q377 901 507 901Q561 901 634.5 875.0Q708 849 793.0 810.5Q878 772 968.5 733.5Q1059 695 1148.5 668.5Q1238 642 1319 640V394Q1250 385 1186.5 362.0Q1123 339 1051.0 303.0Q979 267 884 216Q756 148 643.0 99.5Q530 51 411.5 25.5Q293 0 147 0H-20Z" fill="#ff6b81"/><path transform="translate(405.37,44.00) scale(0.01318,-0.01318)" d="M499 576Q438 521 399.0 461.5Q360 402 349 322Q473 303 473 163Q473 87 430.5 43.5Q388 0 309 0Q215 0 169.5 51.5Q124 103 124 193Q124 348 193.0 468.0Q262 588 374 676Z" fill="#ff6b81"/><path transform="translate(413.42,44.00) scale(0.01318,-0.01318)" d="M657 419Q657 445 645.5 485.5Q634 526 621 554L428 985L650 1092L894 526Q944 411 980.5 340.0Q1017 269 1088 269H1130V0H1088Q974 0 908.0 43.0Q842 86 789 156Q714 80 609.0 40.5Q504 1 352 1Q268 1 207.5 7.0Q147 13 85 28V296Q216 266 337 266Q420 266 493.0 280.5Q566 295 611.5 328.5Q657 362 657 419Z" fill="#ff6b81"/><path transform="translate(428.06,44.00) scale(0.01318,-0.01318)" d="M140 0H-20V269H140Q221 269 250.5 318.0Q280 367 280 443Q280 511 265.0 590.5Q250 670 233 746L478 809Q497 718 508.0 628.5Q519 539 519 458Q519 327 484.0 223.5Q449 120 366.0 60.0Q283 0 140 0ZM258 1280 431 1107 258 934 85 1107Z" fill="#ff6b81"/><path transform="translate(436.02,44.00) scale(0.01318,-0.01318)" d="M346 265Q438 265 517.5 279.0Q597 293 646.5 327.5Q696 362 696 424Q696 487 639.0 557.5Q582 628 484.0 698.0Q386 768 263 828L378 1068Q526 995 652.5 902.5Q779 810 857.0 694.0Q935 578 935 433Q935 203 781.0 102.5Q627 2 361 2Q284 2 216.5 8.0Q149 14 85 27V295Q150 282 221.5 273.5Q293 265 346 265Z" fill="#ff6b81"/><path transform="translate(449.48,44.00) scale(0.01318,-0.01318)" d="M390 1397V1H140V1397Z" fill="#ff6b81"/><path transform="translate(456.47,44.00) scale(0.01318,-0.01318)" d="M346 265Q438 265 517.5 279.0Q597 293 646.5 327.5Q696 362 696 424Q696 487 639.0 557.5Q582 628 484.0 698.0Q386 768 263 828L378 1068Q526 995 652.5 902.5Q779 810 857.0 694.0Q935 578 935 433Q935 203 781.0 102.5Q627 2 361 2Q284 2 216.5 8.0Q149 14 85 27V295Q150 282 221.5 273.5Q293 265 346 265Z" fill="#ff6b81"/><path transform="translate(476.73,44.00) scale(0.01318,-0.01318)" d="M696 925 869 752 696 579 523 752ZM709 -177Q858 -177 942.5 -129.0Q1027 -81 1062.5 0.0Q1098 81 1098 181Q1098 291 1064.0 406.0Q1030 521 990 619L1238 713Q1293 567 1317.0 441.5Q1341 316 1341 189Q1341 -100 1181.5 -271.0Q1022 -442 709 -442Q493 -442 355.5 -360.5Q218 -279 152.5 -139.0Q87 1 87 175Q87 292 113.0 416.0Q139 540 185 663L412 575Q377 472 353.0 372.0Q329 272 329 184Q329 85 363.5 3.0Q398 -79 481.0 -128.0Q564 -177 709 -177Z" fill="#ff6b81"/><path transform="translate(495.53,44.00) scale(0.01318,-0.01318)" d="M139 1397H390V475Q390 362 424.5 315.5Q459 269 558 269H583V0H558Q341 0 240.0 113.5Q139 227 139 456Z" fill="#ff6b81"/><path transform="translate(502.95,44.00) scale(0.01318,-0.01318)" d="M666 -125 839 -298 666 -471 493 -298ZM-20 269H150Q285 269 398.0 295.5Q511 322 631.0 373.5Q751 425 904 499Q753 555 647.5 597.5Q542 640 506 640Q451 640 406.5 606.0Q362 572 332 533L284 473L74 575L113 639Q182 752 279.5 826.5Q377 901 507 901Q561 901 634.5 875.0Q708 849 793.0 810.5Q878 772 968.5 733.5Q1059 695 1148.5 668.5Q1238 642 1319 640V394Q1250 385 1186.5 362.0Q1123 339 1051.0 303.0Q979 267 884 216Q756 148 643.0 99.5Q530 51 411.5 25.5Q293 0 147 0H-20Z" fill="#ff6b81"/><path transform="translate(528.11,44.00) scale(0.01318,-0.01318)" d="M709 -504Q493 -504 355.5 -422.5Q218 -341 152.5 -201.0Q87 -61 87 113Q87 229 113.0 353.5Q139 478 185 601L412 513Q377 410 353.0 310.0Q329 210 329 121Q329 23 363.5 -59.0Q398 -141 481.0 -190.0Q564 -239 709 -239Q859 -239 961.5 -204.0Q1064 -169 1117.0 -120.5Q1170 -72 1170 -31Q1170 -13 1160.0 -1.5Q1150 10 1124 10H962Q888 10 817.5 32.5Q747 55 701.0 123.0Q655 191 655 327Q655 465 713.5 585.5Q772 706 879.0 781.0Q986 856 1132 856Q1202 856 1271.5 835.5Q1341 815 1402 772L1317 537Q1266 564 1220.0 575.0Q1174 586 1133 586Q1021 586 958.5 512.0Q896 438 896 328Q896 297 913.5 287.5Q931 278 963 278H1114Q1279 278 1340.5 200.0Q1402 122 1402 1Q1402 -136 1321.5 -251.0Q1241 -366 1086.5 -435.0Q932 -504 709 -504Z" fill="#ff6b81"/><path transform="translate(547.61,44.00) scale(0.01318,-0.01318)" d="M346 265Q438 265 517.5 279.0Q597 293 646.5 327.5Q696 362 696 424Q696 487 639.0 557.5Q582 628 484.0 698.0Q386 768 263 828L378 1068Q526 995 652.5 902.5Q779 810 857.0 694.0Q935 578 935 433Q935 203 781.0 102.5Q627 2 361 2Q284 2 216.5 8.0Q149 14 85 27V295Q150 282 221.5 273.5Q293 265 346 265Z" fill="#ff6b81"/><path transform="translate(561.07,44.00) scale(0.01318,-0.01318)" d="M390 1397V1H140V1397Z" fill="#ff6b81"/><path transform="translate(568.05,44.00) scale(0.01318,-0.01318)" d="M434 1139 607 966 434 793 261 966ZM48 -544 -46 -298Q176 -250 296.5 -147.0Q417 -44 417 155Q417 245 390.5 354.5Q364 464 331 562L580 644Q618 536 638.5 415.5Q659 295 659 182Q659 -120 495.5 -304.0Q332 -488 48 -544Z" fill="#ff6b81"/><path transform="translate(577.84,44.00) scale(0.01318,-0.01318)" d="M362 1545Q375 1540 385 1540Q408 1540 427.0 1554.5Q446 1569 473 1594L531 1647L643 1545L579 1484Q529 1436 488.0 1410.0Q447 1384 401 1384Q360 1384 306 1408L177 1467Q152 1479 131 1479Q105 1479 79.5 1459.5Q54 1440 15 1400L-49 1336L-162 1439L-97 1506Q-34 1571 15.5 1604.0Q65 1637 113 1637Q140 1637 169.0 1628.5Q198 1620 233 1604ZM390 1265V1H140V1265Z" fill="#ff6b81"/><path transform="translate(591.63,44.00) scale(0.01318,-0.01318)" d="M709 -504Q493 -504 355.5 -422.5Q218 -341 152.5 -201.0Q87 -61 87 113Q87 229 113.0 353.5Q139 478 185 601L412 513Q377 410 353.0 310.0Q329 210 329 121Q329 23 363.5 -59.0Q398 -141 481.0 -190.0Q564 -239 709 -239Q859 -239 961.5 -204.0Q1064 -169 1117.0 -120.5Q1170 -72 1170 -31Q1170 -13 1160.0 -1.5Q1150 10 1124 10H962Q888 10 817.5 32.5Q747 55 701.0 123.0Q655 191 655 327Q655 465 713.5 585.5Q772 706 879.0 781.0Q986 856 1132 856Q1202 856 1271.5 835.5Q1341 815 1402 772L1317 537Q1266 564 1220.0 575.0Q1174 586 1133 586Q1021 586 958.5 512.0Q896 438 896 328Q896 297 913.5 287.5Q931 278 963 278H1114Q1279 278 1340.5 200.0Q1402 122 1402 1Q1402 -136 1321.5 -251.0Q1241 -366 1086.5 -435.0Q932 -504 709 -504Z" fill="#ff6b81"/><path transform="translate(611.12,44.00) scale(0.01318,-0.01318)" d="M390 1397V1H140V1397Z" fill="#ff6b81"/><path transform="translate(618.11,44.00) scale(0.01318,-0.01318)" d="M804 0Q755 0 714.5 11.0Q674 22 647 39Q611 -184 461.0 -338.5Q311 -493 46 -544L-46 -298Q176 -250 296.5 -147.0Q417 -44 417 155Q417 245 390.5 354.5Q364 464 331 562L579 644L637 421Q654 353 690.0 311.0Q726 269 793 269H832V0Z" fill="#ff6b81"/><path transform="translate(628.82,44.00) scale(0.01318,-0.01318)" d="M160 0H-21V269H160Q241 269 270.5 318.0Q300 367 300 443Q300 511 285.0 590.5Q270 670 253 746L498 809Q517 718 528.0 628.5Q539 539 539 458Q539 327 504.0 223.5Q469 120 386.0 60.0Q303 0 160 0ZM185 -125 358 -298 185 -471 12 -298Z" fill="#ff6b81"/><path transform="translate(643.85,44.00) scale(0.01318,-0.01318)" d="M1075 0Q933 0 844.5 56.5Q756 113 719 235Q604 139 463 139Q301 139 193.0 227.0Q85 315 85 484Q85 608 156.5 699.0Q228 790 345.5 854.0Q463 918 602 960L595 1008L821 1054L915 417Q925 352 964.5 310.5Q1004 269 1079 269H1109V0ZM668 531Q668 545 665.5 561.5Q663 578 660 597L641 713Q559 685 488.5 651.0Q418 617 374.5 577.5Q331 538 331 493Q331 447 366.5 420.0Q402 393 460 393Q509 393 556.5 408.5Q604 424 636.0 454.5Q668 485 668 531Z" fill="#ff6b81"/><path transform="translate(658.20,44.00) scale(0.01318,-0.01318)" d="M319 933Q449 853 556.5 773.0Q664 693 728.5 600.5Q793 508 793 391Q793 240 724.0 154.5Q655 69 527.5 34.5Q400 0 224 0H-20V269H223Q390 269 470.5 294.0Q551 319 551 395Q551 434 502.5 481.5Q454 529 380.5 579.5Q307 630 229.0 680.0Q151 730 91 774Q51 803 30.5 849.5Q10 896 10 945Q10 998 35.5 1045.0Q61 1092 114 1113L876 1424V1159Z" fill="#ff6b81"/><path transform="translate(677.25,44.00) scale(0.01318,-0.01318)" d="M696 925 869 752 696 579 523 752ZM709 -177Q858 -177 942.5 -129.0Q1027 -81 1062.5 0.0Q1098 81 1098 181Q1098 291 1064.0 406.0Q1030 521 990 619L1238 713Q1293 567 1317.0 441.5Q1341 316 1341 189Q1341 -100 1181.5 -271.0Q1022 -442 709 -442Q493 -442 355.5 -360.5Q218 -279 152.5 -139.0Q87 1 87 175Q87 292 113.0 416.0Q139 540 185 663L412 575Q377 472 353.0 372.0Q329 272 329 184Q329 85 363.5 3.0Q398 -79 481.0 -128.0Q564 -177 709 -177Z" fill="#ff6b81"/><path transform="translate(696.05,44.00) scale(0.01318,-0.01318)" d="M139 1397H390V475Q390 362 424.5 315.5Q459 269 558 269H583V0H558Q341 0 240.0 113.5Q139 227 139 456Z" fill="#ff6b81"/><path transform="translate(703.48,44.00) scale(0.01318,-0.01318)" d="M140 0H-20V269H140Q221 269 250.5 318.0Q280 367 280 443Q280 511 265.0 590.5Q250 670 233 746L478 809Q497 718 508.0 628.5Q519 539 519 458Q519 327 484.0 223.5Q449 120 366.0 60.0Q283 0 140 0ZM258 1280 431 1107 258 934 85 1107Z" fill="#ff6b81"/><path transform="translate(711.44,44.00) scale(0.01318,-0.01318)" d="M362 1545Q375 1540 385 1540Q408 1540 427.0 1554.5Q446 1569 473 1594L531 1647L643 1545L579 1484Q529 1436 488.0 1410.0Q447 1384 401 1384Q360 1384 306 1408L177 1467Q152 1479 131 1479Q105 1479 79.5 1459.5Q54 1440 15 1400L-49 1336L-162 1439L-97 1506Q-34 1571 15.5 1604.0Q65 1637 113 1637Q140 1637 169.0 1628.5Q198 1620 233 1604ZM390 1265V1H140V1265Z" fill="#ff6b81"/></g><g opacity="0"><animate attributeName="opacity" dur="9s" repeatCount="indefinite" keyTimes="0;0.333;0.400;0.600;0.667;1" values="0;0;1;1;0;0"/><animateTransform attributeName="transform" type="translate" dur="9s" repeatCount="indefinite" keyTimes="0;0.333;0.400;1" values="0 8;0 8;0 0;0 0"/><text x="500.0" y="44" text-anchor="middle" font-family="Georgia,serif" font-style="italic" font-size="19" fill="#ffd9c4" letter-spacing="1">Those who gave their lives for freedom are eternal</text></g><g opacity="0"><animate attributeName="opacity" dur="9s" repeatCount="indefinite" keyTimes="0;0.667;0.733;0.933;1.000;1" values="0;0;1;1;0;0"/><animateTransform attributeName="transform" type="translate" dur="9s" repeatCount="indefinite" keyTimes="0;0.667;0.733;1" values="0 8;0 8;0 0;0 0"/><path transform="translate(280.39,44.00) scale(0.01172,-0.01172)" d="M866 212Q866 -14 782.5 -167.0Q699 -320 543.5 -411.0Q388 -502 173 -543L82 -297Q291 -256 429.0 -178.5Q567 -101 601 13Q538 -2 485 -2Q298 -2 191.5 80.5Q85 163 85 348Q85 427 109.0 509.0Q133 591 180.0 660.0Q227 729 296.5 771.0Q366 813 457 813Q562 813 639.0 762.0Q716 711 766.5 625.0Q817 539 841.5 432.0Q866 325 866 212ZM483 265Q525 265 562.5 270.5Q600 276 627 283Q621 345 602.0 407.0Q583 469 547.5 510.0Q512 551 455 551Q403 551 374.0 517.0Q345 483 333.5 438.0Q322 393 322 358Q322 300 366.5 282.5Q411 265 483 265Z" fill="#ffb3c1"/><path transform="translate(291.54,44.00) scale(0.01172,-0.01172)" d="M804 0Q755 0 714.5 11.0Q674 22 647 39Q611 -184 461.0 -338.5Q311 -493 46 -544L-46 -298Q176 -250 296.5 -147.0Q417 -44 417 155Q417 245 390.5 354.5Q364 464 331 562L579 644L637 421Q654 353 690.0 311.0Q726 269 793 269H832V0Z" fill="#ffb3c1"/><path transform="translate(301.05,44.00) scale(0.01172,-0.01172)" d="M510 86Q420 54 304.5 27.0Q189 0 79 0H-20V269H66Q105 269 138.5 270.0Q172 271 209 274Q171 317 149.5 383.5Q128 450 128 510Q128 599 171.5 679.5Q215 760 298.5 812.0Q382 864 502 867L597 1054Q844 937 1014.0 843.0Q1184 749 1271.5 649.5Q1359 550 1359 415Q1359 217 1239.5 113.5Q1120 10 922 10Q852 10 776.0 22.0Q700 34 630.5 52.0Q561 70 510 86ZM363 512Q363 456 413.0 406.5Q463 357 527 335Q561 345 597.0 368.0Q633 391 658.0 424.5Q683 458 683 496Q683 561 638.5 608.0Q594 655 529 655Q461 655 412.0 613.5Q363 572 363 512ZM790 270Q836 263 881.5 259.0Q927 255 950 255Q1021 255 1073.0 288.5Q1125 322 1125 408Q1125 446 1073.5 500.0Q1022 554 868 641Q890 588 890 531Q890 450 863.0 385.5Q836 321 790 270Z" fill="#ffb3c1"/><path transform="translate(317.97,44.00) scale(0.01172,-0.01172)" d="M48 -544 -46 -298Q176 -250 296.5 -147.0Q417 -44 417 155Q417 245 390.5 354.5Q364 464 331 562L580 644Q618 536 638.5 415.5Q659 295 659 182Q659 -120 495.5 -304.0Q332 -488 48 -544Z" fill="#ffb3c1"/><path transform="translate(326.67,44.00) scale(0.01172,-0.01172)" d="M804 0Q755 0 714.5 11.0Q674 22 647 39Q611 -184 461.0 -338.5Q311 -493 46 -544L-46 -298Q176 -250 296.5 -147.0Q417 -44 417 155Q417 245 390.5 354.5Q364 464 331 562L579 644L637 421Q654 353 690.0 311.0Q726 269 793 269H832V0Z" fill="#ffb3c1"/><path transform="translate(336.18,44.00) scale(0.01172,-0.01172)" d="M194 0H-22V269H194Q275 269 304.5 318.0Q334 367 334 443Q334 511 319.0 590.5Q304 670 287 746L532 809Q551 718 562.0 628.5Q573 539 573 458Q573 327 538.0 223.5Q503 120 420.0 60.0Q337 0 194 0ZM343 -104 499 -260 343 -416 188 -260ZM-5 -104 151 -260 -5 -416 -161 -260ZM169 -360 325 -515 169 -671 13 -515Z" fill="#ffb3c1"/><path transform="translate(349.94,44.00) scale(0.01172,-0.01172)" d="M696 925 869 752 696 579 523 752ZM709 -177Q858 -177 942.5 -129.0Q1027 -81 1062.5 0.0Q1098 81 1098 181Q1098 291 1064.0 406.0Q1030 521 990 619L1238 713Q1293 567 1317.0 441.5Q1341 316 1341 189Q1341 -100 1181.5 -271.0Q1022 -442 709 -442Q493 -442 355.5 -360.5Q218 -279 152.5 -139.0Q87 1 87 175Q87 292 113.0 416.0Q139 540 185 663L412 575Q377 472 353.0 372.0Q329 272 329 184Q329 85 363.5 3.0Q398 -79 481.0 -128.0Q564 -177 709 -177Z" fill="#ffb3c1"/><path transform="translate(366.65,44.00) scale(0.01172,-0.01172)" d="M139 1397H390V475Q390 362 424.5 315.5Q459 269 558 269H583V0H558Q341 0 240.0 113.5Q139 227 139 456Z" fill="#ffb3c1"/><path transform="translate(373.25,44.00) scale(0.01172,-0.01172)" d="M891 1406 1047 1250 891 1094 735 1250ZM1065 1151 1221 995 1065 839 910 995ZM717 1151 873 995 717 839 561 995ZM677 0Q573 0 505.5 35.5Q438 71 396 131Q342 70 267.0 35.0Q192 0 72 0H-20V269H74Q187 269 236.0 299.5Q285 330 285 438Q285 461 281.5 523.5Q278 586 273 643L507 672L528 413Q537 269 679 269Q767 269 796.5 308.0Q826 347 826 438Q826 460 822.5 523.0Q819 586 814 643L1048 672L1069 413Q1073 348 1102.0 308.5Q1131 269 1199 269Q1263 269 1287.0 319.0Q1311 369 1311 438Q1311 494 1301.5 552.5Q1292 611 1280.0 660.0Q1268 709 1262 733L1503 799Q1523 722 1536.0 635.5Q1549 549 1549 463Q1549 342 1517.0 236.5Q1485 131 1408.5 65.5Q1332 0 1200 0Q1109 0 1048.0 37.5Q987 75 946 133Q894 74 828.5 37.0Q763 0 677 0Z" fill="#ffb3c1"/><path transform="translate(392.41,44.00) scale(0.01172,-0.01172)" d="M302 773 263 808 419 1008Q510 935 597.5 863.0Q685 791 756.0 715.5Q827 640 869.0 558.0Q911 476 911 384Q911 266 858.0 181.0Q805 96 712.0 50.0Q619 4 498 4Q298 4 191.5 102.5Q85 201 85 350Q85 474 146.5 571.5Q208 669 302 773ZM672 385Q672 420 642.5 461.0Q613 502 570.0 542.0Q527 582 486 613Q426 558 375.0 493.5Q324 429 324 375Q324 326 369.5 297.5Q415 269 497 269Q672 269 672 385Z" fill="#ffb3c1"/><path transform="translate(404.07,44.00) scale(0.01172,-0.01172)" d="M390 1397V1H140V1397Z" fill="#ffb3c1"/><path transform="translate(410.28,44.00) scale(0.01172,-0.01172)" d="M48 -544 -46 -298Q176 -250 296.5 -147.0Q417 -44 417 155Q417 245 390.5 354.5Q364 464 331 562L580 644Q618 536 638.5 415.5Q659 295 659 182Q659 -120 495.5 -304.0Q332 -488 48 -544Z" fill="#ffb3c1"/><path transform="translate(425.02,44.00) scale(0.01172,-0.01172)" d="M141 699Q141 764 185.5 807.0Q230 850 305 850Q379 850 423.5 807.0Q468 764 468 699Q468 635 423.5 592.5Q379 550 305 550Q230 550 185.5 592.5Q141 635 141 699Z" fill="#ffb3c1"/><path transform="translate(438.31,44.00) scale(0.01172,-0.01172)" d="M709 -514Q489 -514 352.0 -430.5Q215 -347 151.0 -206.5Q87 -66 87 105Q87 198 105.5 302.5Q124 407 165 519L392 436Q329 253 329 107Q329 8 364.0 -72.5Q399 -153 482.5 -201.0Q566 -249 709 -249Q866 -249 964.5 -215.0Q1063 -181 1109.0 -138.0Q1155 -95 1155 -68Q1155 -30 1119.5 -15.0Q1084 0 1007 0H852Q815 0 804.0 20.0Q793 40 783 74L744 218Q738 240 741.0 254.0Q744 268 776 268H1370V0H1368Q1376 -22 1378.0 -36.0Q1380 -50 1380 -67Q1380 -183 1302.0 -285.0Q1224 -387 1074.5 -450.5Q925 -514 709 -514Z" fill="#ffb3c1"/><path transform="translate(454.12,44.00) scale(0.01172,-0.01172)" d="M682 -23Q579 -23 490.0 21.5Q401 66 313 136Q256 78 196.5 39.0Q137 0 24 0H-20V269H19Q72 269 112.5 307.5Q153 346 189.5 406.0Q226 466 265.0 534.0Q304 602 353.5 662.0Q403 722 469.0 760.5Q535 799 626 799Q749 799 839.5 740.5Q930 682 979.0 586.0Q1028 490 1028 376Q1028 201 941.0 89.0Q854 -23 682 -23ZM634 543Q591 543 556.5 514.5Q522 486 496.0 444.0Q470 402 451 363Q507 310 559 280Q597 258 628.0 249.5Q659 241 683 241Q740 241 765.5 279.0Q791 317 791 371Q791 442 749.5 492.5Q708 543 634 543Z" fill="#ffb3c1"/><path transform="translate(467.15,44.00) scale(0.01172,-0.01172)" d="M390 1397V1H140V1397Z" fill="#ffb3c1"/><path transform="translate(473.36,44.00) scale(0.01172,-0.01172)" d="M804 0Q755 0 714.5 11.0Q674 22 647 39Q611 -184 461.0 -338.5Q311 -493 46 -544L-46 -298Q176 -250 296.5 -147.0Q417 -44 417 155Q417 245 390.5 354.5Q364 464 331 562L579 644L637 421Q654 353 690.0 311.0Q726 269 793 269H832V0Z" fill="#ffb3c1"/><path transform="translate(482.88,44.00) scale(0.01172,-0.01172)" d="M62 1201V1344L865 1671V1527ZM319 933Q449 853 556.5 773.0Q664 693 728.5 600.5Q793 508 793 391Q793 240 724.0 154.5Q655 69 527.5 34.5Q400 0 224 0H-20V269H223Q390 269 470.5 294.0Q551 319 551 395Q551 434 502.5 481.5Q454 529 380.5 579.5Q307 630 229.0 680.0Q151 730 91 774Q51 803 30.5 849.5Q10 896 10 945Q10 998 35.5 1045.0Q61 1092 114 1113L876 1424V1159Z" fill="#ffb3c1"/><path transform="translate(499.81,44.00) scale(0.01172,-0.01172)" d="M696 925 869 752 696 579 523 752ZM709 -177Q858 -177 942.5 -129.0Q1027 -81 1062.5 0.0Q1098 81 1098 181Q1098 291 1064.0 406.0Q1030 521 990 619L1238 713Q1293 567 1317.0 441.5Q1341 316 1341 189Q1341 -100 1181.5 -271.0Q1022 -442 709 -442Q493 -442 355.5 -360.5Q218 -279 152.5 -139.0Q87 1 87 175Q87 292 113.0 416.0Q139 540 185 663L412 575Q377 472 353.0 372.0Q329 272 329 184Q329 85 363.5 3.0Q398 -79 481.0 -128.0Q564 -177 709 -177Z" fill="#ffb3c1"/><path transform="translate(516.52,44.00) scale(0.01172,-0.01172)" d="M139 1397H390V475Q390 362 424.5 315.5Q459 269 558 269H583V0H558Q341 0 240.0 113.5Q139 227 139 456Z" fill="#ffb3c1"/><path transform="translate(523.12,44.00) scale(0.01172,-0.01172)" d="M891 1406 1047 1250 891 1094 735 1250ZM1065 1151 1221 995 1065 839 910 995ZM717 1151 873 995 717 839 561 995ZM677 0Q573 0 505.5 35.5Q438 71 396 131Q342 70 267.0 35.0Q192 0 72 0H-20V269H74Q187 269 236.0 299.5Q285 330 285 438Q285 461 281.5 523.5Q278 586 273 643L507 672L528 413Q537 269 679 269Q767 269 796.5 308.0Q826 347 826 438Q826 460 822.5 523.0Q819 586 814 643L1048 672L1069 413Q1073 348 1102.0 308.5Q1131 269 1199 269Q1263 269 1287.0 319.0Q1311 369 1311 438Q1311 494 1301.5 552.5Q1292 611 1280.0 660.0Q1268 709 1262 733L1503 799Q1523 722 1536.0 635.5Q1549 549 1549 463Q1549 342 1517.0 236.5Q1485 131 1408.5 65.5Q1332 0 1200 0Q1109 0 1048.0 37.5Q987 75 946 133Q894 74 828.5 37.0Q763 0 677 0Z" fill="#ffb3c1"/><path transform="translate(542.28,44.00) scale(0.01172,-0.01172)" d="M346 265Q438 265 517.5 279.0Q597 293 646.5 327.5Q696 362 696 424Q696 487 639.0 557.5Q582 628 484.0 698.0Q386 768 263 828L378 1068Q526 995 652.5 902.5Q779 810 857.0 694.0Q935 578 935 433Q935 203 781.0 102.5Q627 2 361 2Q284 2 216.5 8.0Q149 14 85 27V295Q150 282 221.5 273.5Q293 265 346 265Z" fill="#ffb3c1"/><path transform="translate(554.25,44.00) scale(0.01172,-0.01172)" d="M139 1397H390V475Q390 362 424.5 315.5Q459 269 558 269H583V0H558Q341 0 240.0 113.5Q139 227 139 456Z" fill="#ffb3c1"/><path transform="translate(560.84,44.00) scale(0.01172,-0.01172)" d="M194 0H-22V269H194Q275 269 304.5 318.0Q334 367 334 443Q334 511 319.0 590.5Q304 670 287 746L532 809Q551 718 562.0 628.5Q573 539 573 458Q573 327 538.0 223.5Q503 120 420.0 60.0Q337 0 194 0ZM341 -134 507 -298 341 -464 177 -298ZM5 -134 171 -298 5 -464 -159 -298Z" fill="#ffb3c1"/><path transform="translate(574.60,44.00) scale(0.01172,-0.01172)" d="M141 699Q141 764 185.5 807.0Q230 850 305 850Q379 850 423.5 807.0Q468 764 468 699Q468 635 423.5 592.5Q379 550 305 550Q230 550 185.5 592.5Q141 635 141 699Z" fill="#ffb3c1"/><path transform="translate(587.89,44.00) scale(0.01172,-0.01172)" d="M657 419Q657 445 645.5 485.5Q634 526 621 554L428 985L650 1092L894 526Q944 411 980.5 340.0Q1017 269 1088 269H1130V0H1088Q974 0 908.0 43.0Q842 86 789 156Q714 80 609.0 40.5Q504 1 352 1Q268 1 207.5 7.0Q147 13 85 28V296Q216 266 337 266Q420 266 493.0 280.5Q566 295 611.5 328.5Q657 362 657 419Z" fill="#ffb3c1"/><path transform="translate(600.90,44.00) scale(0.01172,-0.01172)" d="M194 0H-22V269H194Q275 269 304.5 318.0Q334 367 334 443Q334 511 319.0 590.5Q304 670 287 746L532 809Q551 718 562.0 628.5Q573 539 573 458Q573 327 538.0 223.5Q503 120 420.0 60.0Q337 0 194 0ZM341 -134 507 -298 341 -464 177 -298ZM5 -134 171 -298 5 -464 -159 -298Z" fill="#ffb3c1"/><path transform="translate(608.61,44.00) scale(0.01172,-0.01172)" d="M866 212Q866 -14 782.5 -167.0Q699 -320 543.5 -411.0Q388 -502 173 -543L82 -297Q291 -256 429.0 -178.5Q567 -101 601 13Q538 -2 485 -2Q298 -2 191.5 80.5Q85 163 85 348Q85 427 109.0 509.0Q133 591 180.0 660.0Q227 729 296.5 771.0Q366 813 457 813Q562 813 639.0 762.0Q716 711 766.5 625.0Q817 539 841.5 432.0Q866 325 866 212ZM483 265Q525 265 562.5 270.5Q600 276 627 283Q621 345 602.0 407.0Q583 469 547.5 510.0Q512 551 455 551Q403 551 374.0 517.0Q345 483 333.5 438.0Q322 393 322 358Q322 300 366.5 282.5Q411 265 483 265Z" fill="#ffb3c1"/><path transform="translate(619.75,44.00) scale(0.01172,-0.01172)" d="M139 1397H390V475Q390 362 424.5 315.5Q459 269 558 269H583V0H558Q341 0 240.0 113.5Q139 227 139 456Z" fill="#ffb3c1"/><path transform="translate(626.35,44.00) scale(0.01172,-0.01172)" d="M666 -125 839 -298 666 -471 493 -298ZM-20 269H150Q285 269 398.0 295.5Q511 322 631.0 373.5Q751 425 904 499Q753 555 647.5 597.5Q542 640 506 640Q451 640 406.5 606.0Q362 572 332 533L284 473L74 575L113 639Q182 752 279.5 826.5Q377 901 507 901Q561 901 634.5 875.0Q708 849 793.0 810.5Q878 772 968.5 733.5Q1059 695 1148.5 668.5Q1238 642 1319 640V394Q1250 385 1186.5 362.0Q1123 339 1051.0 303.0Q979 267 884 216Q756 148 643.0 99.5Q530 51 411.5 25.5Q293 0 147 0H-20Z" fill="#ffb3c1"/><path transform="translate(648.71,44.00) scale(0.01172,-0.01172)" d="M696 925 869 752 696 579 523 752ZM709 -177Q858 -177 942.5 -129.0Q1027 -81 1062.5 0.0Q1098 81 1098 181Q1098 291 1064.0 406.0Q1030 521 990 619L1238 713Q1293 567 1317.0 441.5Q1341 316 1341 189Q1341 -100 1181.5 -271.0Q1022 -442 709 -442Q493 -442 355.5 -360.5Q218 -279 152.5 -139.0Q87 1 87 175Q87 292 113.0 416.0Q139 540 185 663L412 575Q377 472 353.0 372.0Q329 272 329 184Q329 85 363.5 3.0Q398 -79 481.0 -128.0Q564 -177 709 -177Z" fill="#ffb3c1"/><path transform="translate(665.42,44.00) scale(0.01172,-0.01172)" d="M139 1397H390V475Q390 362 424.5 315.5Q459 269 558 269H583V0H558Q341 0 240.0 113.5Q139 227 139 456Z" fill="#ffb3c1"/><path transform="translate(672.02,44.00) scale(0.01172,-0.01172)" d="M891 1406 1047 1250 891 1094 735 1250ZM1065 1151 1221 995 1065 839 910 995ZM717 1151 873 995 717 839 561 995ZM677 0Q573 0 505.5 35.5Q438 71 396 131Q342 70 267.0 35.0Q192 0 72 0H-20V269H74Q187 269 236.0 299.5Q285 330 285 438Q285 461 281.5 523.5Q278 586 273 643L507 672L528 413Q537 269 679 269Q767 269 796.5 308.0Q826 347 826 438Q826 460 822.5 523.0Q819 586 814 643L1048 672L1069 413Q1073 348 1102.0 308.5Q1131 269 1199 269Q1263 269 1287.0 319.0Q1311 369 1311 438Q1311 494 1301.5 552.5Q1292 611 1280.0 660.0Q1268 709 1262 733L1503 799Q1523 722 1536.0 635.5Q1549 549 1549 463Q1549 342 1517.0 236.5Q1485 131 1408.5 65.5Q1332 0 1200 0Q1109 0 1048.0 37.5Q987 75 946 133Q894 74 828.5 37.0Q763 0 677 0Z" fill="#ffb3c1"/><path transform="translate(691.18,44.00) scale(0.01172,-0.01172)" d="M354 374Q389 489 446.0 585.5Q503 682 584.0 740.0Q665 798 770 798Q890 798 981.0 744.0Q1072 690 1122.5 592.5Q1173 495 1173 365Q1173 261 1135.0 174.0Q1097 87 1022.0 35.5Q947 -16 834 -16Q779 -16 718.0 3.0Q657 22 598.5 46.5Q540 71 491.5 90.0Q443 109 414 109Q362 109 345.5 13.5Q329 -82 329 -243Q329 -367 335.5 -474.5Q342 -582 346 -637H92Q86 -532 82.0 -434.5Q78 -337 78 -245Q78 -74 95.5 57.0Q113 188 172.0 270.0Q231 352 354 374ZM936 366Q936 435 891.5 487.5Q847 540 774 540Q727 540 691.0 508.5Q655 477 630.5 429.0Q606 381 590 333Q665 299 731.0 273.5Q797 248 838 248Q891 248 913.5 283.5Q936 319 936 366Z" fill="#ffb3c1"/><path transform="translate(705.93,44.00) scale(0.01172,-0.01172)" d="M139 1397H390V475Q390 362 424.5 315.5Q459 269 558 269H583V0H558Q341 0 240.0 113.5Q139 227 139 456Z" fill="#ffb3c1"/><path transform="translate(712.53,44.00) scale(0.01172,-0.01172)" d="M140 0H-20V269H140Q221 269 250.5 318.0Q280 367 280 443Q280 511 265.0 590.5Q250 670 233 746L478 809Q497 718 508.0 628.5Q519 539 519 458Q519 327 484.0 223.5Q449 120 366.0 60.0Q283 0 140 0ZM258 1280 431 1107 258 934 85 1107Z" fill="#ffb3c1"/></g>
  <rect x="350.0" y="60" width="300" height="2" fill="url(#underline)" rx="1">
    <animate attributeName="opacity" dur="2.5s" values="0.3;1;0.3" repeatCount="indefinite"/>
  </rect>
</svg>